<?xml version="1.0" encoding="UTF-8" standalone="no"?>
<!DOCTYPE svg PUBLIC "-//W3C//DTD SVG 1.1//EN"
 "http://www.w3.org/Graphics/SVG/1.1/DTD/svg11.dtd">
<!-- Generated by graphviz version 2.47.3 (20210619.1520)
 -->
<!-- Title: dependencies Pages: 1 -->
<svg width="1120pt" height="174pt"
 viewBox="0.00 0.00 1120.00 173.80" xmlns="http://www.w3.org/2000/svg" xmlns:xlink="http://www.w3.org/1999/xlink">
<g id="graph0" class="graph" transform="scale(1 1) rotate(0) translate(4 169.8)">
<title>dependencies</title>
<polygon fill="white" stroke="transparent" points="-4,4 -4,-169.8 1116,-169.8 1116,4 -4,4"/>
<text text-anchor="middle" x="556" y="-8.2" font-family="sans-serif" font-size="14.00">dependencies</text>
<g id="clust1" class="cluster">
<title>cluster_ConfiguracionModule</title>
<polygon fill="none" stroke="black" stroke-dasharray="1,5" points="8,-32.8 8,-157.8 1104,-157.8 1104,-32.8 8,-32.8"/>
</g>
<g id="clust2" class="cluster">
<title>cluster_ConfiguracionModule_declarations</title>
<polygon fill="none" stroke="black" points="226,-40.8 226,-92.8 1096,-92.8 1096,-40.8 226,-40.8"/>
</g>
<g id="clust8" class="cluster">
<title>cluster_ConfiguracionModule_imports</title>
<polygon fill="none" stroke="black" points="16,-40.8 16,-92.8 218,-92.8 218,-40.8 16,-40.8"/>
</g>
<!-- ConfiguracionComponent -->
<g id="node1" class="node">
<title>ConfiguracionComponent</title>
<polygon fill="#ffffb3" stroke="black" points="1088.2,-84.8 925.8,-84.8 925.8,-48.8 1088.2,-48.8 1088.2,-84.8"/>
<text text-anchor="middle" x="1007" y="-62.6" font-family="Times,serif" font-size="14.00">ConfiguracionComponent</text>
</g>
<!-- ConfiguracionModule -->
<g id="node6" class="node">
<title>ConfiguracionModule</title>
<polygon fill="#8dd3c7" stroke="black" points="616.42,-149.8 613.42,-153.8 592.42,-153.8 589.42,-149.8 475.58,-149.8 475.58,-113.8 616.42,-113.8 616.42,-149.8"/>
<text text-anchor="middle" x="546" y="-127.6" font-family="Times,serif" font-size="14.00">ConfiguracionModule</text>
</g>
<!-- ConfiguracionComponent&#45;&gt;ConfiguracionModule -->
<g id="edge1" class="edge">
<title>ConfiguracionComponent&#45;&gt;ConfiguracionModule</title>
<path fill="none" stroke="black" d="M1007,-85.08C1007,-106.12 1007,-137.8 1007,-137.8 1007,-137.8 626.27,-137.8 626.27,-137.8"/>
<polygon fill="black" stroke="black" points="626.27,-134.3 616.27,-137.8 626.27,-141.3 626.27,-134.3"/>
</g>
<!-- TableDataOneComponent -->
<g id="node2" class="node">
<title>TableDataOneComponent</title>
<polygon fill="#ffffb3" stroke="black" points="907.45,-84.8 744.55,-84.8 744.55,-48.8 907.45,-48.8 907.45,-84.8"/>
<text text-anchor="middle" x="826" y="-62.6" font-family="Times,serif" font-size="14.00">TableDataOneComponent</text>
</g>
<!-- TableDataOneComponent&#45;&gt;ConfiguracionModule -->
<g id="edge2" class="edge">
<title>TableDataOneComponent&#45;&gt;ConfiguracionModule</title>
<path fill="none" stroke="black" d="M826,-84.82C826,-102.17 826,-125.8 826,-125.8 826,-125.8 626.29,-125.8 626.29,-125.8"/>
<polygon fill="black" stroke="black" points="626.29,-122.3 616.29,-125.8 626.29,-129.3 626.29,-122.3"/>
</g>
<!-- TableDataThreeComponent -->
<g id="node3" class="node">
<title>TableDataThreeComponent</title>
<polygon fill="#ffffb3" stroke="black" points="726.27,-84.8 553.73,-84.8 553.73,-48.8 726.27,-48.8 726.27,-84.8"/>
<text text-anchor="middle" x="640" y="-62.6" font-family="Times,serif" font-size="14.00">TableDataThreeComponent</text>
</g>
<!-- TableDataThreeComponent&#45;&gt;ConfiguracionModule -->
<g id="edge3" class="edge">
<title>TableDataThreeComponent&#45;&gt;ConfiguracionModule</title>
<path fill="none" stroke="black" d="M585.04,-84.91C585.04,-84.91 585.04,-103.79 585.04,-103.79"/>
<polygon fill="black" stroke="black" points="581.54,-103.79 585.04,-113.79 588.54,-103.79 581.54,-103.79"/>
</g>
<!-- TableDataTwoComponent -->
<g id="node4" class="node">
<title>TableDataTwoComponent</title>
<polygon fill="#ffffb3" stroke="black" points="535.79,-84.8 370.21,-84.8 370.21,-48.8 535.79,-48.8 535.79,-84.8"/>
<text text-anchor="middle" x="453" y="-62.6" font-family="Times,serif" font-size="14.00">TableDataTwoComponent</text>
</g>
<!-- TableDataTwoComponent&#45;&gt;ConfiguracionModule -->
<g id="edge4" class="edge">
<title>TableDataTwoComponent&#45;&gt;ConfiguracionModule</title>
<path fill="none" stroke="black" d="M505.72,-84.91C505.72,-84.91 505.72,-103.79 505.72,-103.79"/>
<polygon fill="black" stroke="black" points="502.22,-103.79 505.72,-113.79 509.22,-103.79 502.22,-103.79"/>
</g>
<!-- TablesComponent -->
<g id="node5" class="node">
<title>TablesComponent</title>
<polygon fill="#ffffb3" stroke="black" points="352.15,-84.8 233.85,-84.8 233.85,-48.8 352.15,-48.8 352.15,-84.8"/>
<text text-anchor="middle" x="293" y="-62.6" font-family="Times,serif" font-size="14.00">TablesComponent</text>
</g>
<!-- TablesComponent&#45;&gt;ConfiguracionModule -->
<g id="edge5" class="edge">
<title>TablesComponent&#45;&gt;ConfiguracionModule</title>
<path fill="none" stroke="black" d="M293,-84.82C293,-102.17 293,-125.8 293,-125.8 293,-125.8 465.53,-125.8 465.53,-125.8"/>
<polygon fill="black" stroke="black" points="465.53,-129.3 475.53,-125.8 465.53,-122.3 465.53,-129.3"/>
</g>
<!-- ConfiguracionRoutingModule -->
<g id="node7" class="node">
<title>ConfiguracionRoutingModule</title>
<polygon fill="#8dd3c7" stroke="black" points="209.54,-84.8 206.54,-88.8 185.54,-88.8 182.54,-84.8 24.46,-84.8 24.46,-48.8 209.54,-48.8 209.54,-84.8"/>
<text text-anchor="middle" x="117" y="-62.6" font-family="Times,serif" font-size="14.00">ConfiguracionRoutingModule</text>
</g>
<!-- ConfiguracionRoutingModule&#45;&gt;ConfiguracionModule -->
<g id="edge6" class="edge">
<title>ConfiguracionRoutingModule&#45;&gt;ConfiguracionModule</title>
<path fill="none" stroke="black" d="M117,-85.08C117,-106.12 117,-137.8 117,-137.8 117,-137.8 465.64,-137.8 465.64,-137.8"/>
<polygon fill="black" stroke="black" points="465.64,-141.3 475.64,-137.8 465.64,-134.3 465.64,-141.3"/>
</g>
</g>
</svg>
