<?xml version="1.0" encoding="UTF-8" standalone="no"?>
<!DOCTYPE svg PUBLIC "-//W3C//DTD SVG 1.1//EN"
 "http://www.w3.org/Graphics/SVG/1.1/DTD/svg11.dtd">
<!-- Generated by graphviz version 2.47.3 (20210619.1520)
 -->
<!-- Title: dependencies Pages: 1 -->
<svg width="581pt" height="247pt"
 viewBox="0.00 0.00 581.00 246.80" xmlns="http://www.w3.org/2000/svg" xmlns:xlink="http://www.w3.org/1999/xlink">
<g id="graph0" class="graph" transform="scale(1 1) rotate(0) translate(4 242.8)">
<title>dependencies</title>
<polygon fill="white" stroke="transparent" points="-4,4 -4,-242.8 577,-242.8 577,4 -4,4"/>
<text text-anchor="middle" x="286.5" y="-8.2" font-family="sans-serif" font-size="14.00">dependencies</text>
<g id="clust1" class="cluster">
<title>cluster_AppModule</title>
<polygon fill="none" stroke="black" stroke-dasharray="1,5" points="8,-32.8 8,-230.8 565,-230.8 565,-32.8 8,-32.8"/>
</g>
<g id="clust6" class="cluster">
<title>cluster_AppModule_bootstrap</title>
<polygon fill="none" stroke="black" points="255,-170.8 255,-222.8 379,-222.8 379,-170.8 255,-170.8"/>
</g>
<g id="clust7" class="cluster">
<title>cluster_AppModule_providers</title>
<polygon fill="none" stroke="black" points="457,-40.8 457,-92.8 557,-92.8 557,-40.8 457,-40.8"/>
</g>
<g id="clust2" class="cluster">
<title>cluster_AppModule_declarations</title>
<polygon fill="none" stroke="black" points="327,-40.8 327,-92.8 449,-92.8 449,-40.8 327,-40.8"/>
</g>
<g id="clust4" class="cluster">
<title>cluster_AppModule_imports</title>
<polygon fill="none" stroke="black" points="16,-40.8 16,-92.8 319,-92.8 319,-40.8 16,-40.8"/>
</g>
<!-- AppComponent -->
<g id="node1" class="node">
<title>AppComponent</title>
<polygon fill="#ffffb3" stroke="black" points="440.94,-84.8 335.06,-84.8 335.06,-48.8 440.94,-48.8 440.94,-84.8"/>
<text text-anchor="middle" x="388" y="-62.6" font-family="Times,serif" font-size="14.00">AppComponent</text>
</g>
<!-- AppModule -->
<g id="node2" class="node">
<title>AppModule</title>
<polygon fill="#8dd3c7" stroke="black" points="358.66,-149.8 355.66,-153.8 334.66,-153.8 331.66,-149.8 275.34,-149.8 275.34,-113.8 358.66,-113.8 358.66,-149.8"/>
<text text-anchor="middle" x="317" y="-127.6" font-family="Times,serif" font-size="14.00">AppModule</text>
</g>
<!-- AppComponent&#45;&gt;AppModule -->
<g id="edge1" class="edge">
<title>AppComponent&#45;&gt;AppModule</title>
<path fill="none" stroke="black" d="M347.05,-84.91C347.05,-84.91 347.05,-103.79 347.05,-103.79"/>
<polygon fill="black" stroke="black" points="343.55,-103.79 347.05,-113.79 350.55,-103.79 343.55,-103.79"/>
</g>
<!-- AppComponent  -->
<g id="node5" class="node">
<title>AppComponent </title>
<polygon fill="#80b1d3" stroke="black" points="371.44,-214.8 262.56,-214.8 262.56,-178.8 371.44,-178.8 371.44,-214.8"/>
<text text-anchor="middle" x="317" y="-192.6" font-family="Times,serif" font-size="14.00">AppComponent </text>
</g>
<!-- AppModule&#45;&gt;AppComponent  -->
<g id="edge4" class="edge">
<title>AppModule&#45;&gt;AppComponent </title>
<path fill="none" stroke="black" stroke-dasharray="1,5" d="M317,-149.91C317,-149.91 317,-168.79 317,-168.79"/>
<polygon fill="black" stroke="black" points="313.5,-168.79 317,-178.79 320.5,-168.79 313.5,-168.79"/>
</g>
<!-- AppRoutingModule -->
<g id="node3" class="node">
<title>AppRoutingModule</title>
<polygon fill="#8dd3c7" stroke="black" points="311.27,-84.8 308.27,-88.8 287.27,-88.8 284.27,-84.8 182.73,-84.8 182.73,-48.8 311.27,-48.8 311.27,-84.8"/>
<text text-anchor="middle" x="247" y="-62.6" font-family="Times,serif" font-size="14.00">AppRoutingModule</text>
</g>
<!-- AppRoutingModule&#45;&gt;AppModule -->
<g id="edge2" class="edge">
<title>AppRoutingModule&#45;&gt;AppModule</title>
<path fill="none" stroke="black" d="M293.28,-84.91C293.28,-84.91 293.28,-103.79 293.28,-103.79"/>
<polygon fill="black" stroke="black" points="289.78,-103.79 293.28,-113.79 296.78,-103.79 289.78,-103.79"/>
</g>
<!-- ConfiguracionModule -->
<g id="node4" class="node">
<title>ConfiguracionModule</title>
<polygon fill="#8dd3c7" stroke="black" points="164.42,-84.8 161.42,-88.8 140.42,-88.8 137.42,-84.8 23.58,-84.8 23.58,-48.8 164.42,-48.8 164.42,-84.8"/>
<text text-anchor="middle" x="94" y="-62.6" font-family="Times,serif" font-size="14.00">ConfiguracionModule</text>
</g>
<!-- ConfiguracionModule&#45;&gt;AppModule -->
<g id="edge3" class="edge">
<title>ConfiguracionModule&#45;&gt;AppModule</title>
<path fill="none" stroke="black" d="M94,-84.91C94,-104.14 94,-131.8 94,-131.8 94,-131.8 265.32,-131.8 265.32,-131.8"/>
<polygon fill="black" stroke="black" points="265.32,-135.3 275.32,-131.8 265.32,-128.3 265.32,-135.3"/>
</g>
<!-- Settings -->
<g id="node6" class="node">
<title>Settings</title>
<ellipse fill="#fdb462" stroke="black" cx="507" cy="-66.8" rx="42.31" ry="18"/>
<text text-anchor="middle" x="507" y="-62.6" font-family="Times,serif" font-size="14.00">Settings</text>
</g>
<!-- Settings&#45;&gt;AppModule -->
<g id="edge5" class="edge">
<title>Settings&#45;&gt;AppModule</title>
<path fill="none" stroke="black" d="M507,-84.91C507,-104.14 507,-131.8 507,-131.8 507,-131.8 368.7,-131.8 368.7,-131.8"/>
<polygon fill="black" stroke="black" points="368.7,-128.3 358.7,-131.8 368.7,-135.3 368.7,-128.3"/>
</g>
</g>
</svg>
