<?xml version="1.0" encoding="UTF-8" standalone="no"?>
<!DOCTYPE svg PUBLIC "-//W3C//DTD SVG 1.1//EN"
 "http://www.w3.org/Graphics/SVG/1.1/DTD/svg11.dtd">
<!-- Generated by graphviz version 2.47.3 (20210619.1520)
 -->
<!-- Title: dependencies Pages: 1 -->
<svg width="1120pt" height="323pt"
 viewBox="0.00 0.00 1120.00 322.80" xmlns="http://www.w3.org/2000/svg" xmlns:xlink="http://www.w3.org/1999/xlink">
<g id="graph0" class="graph" transform="scale(1 1) rotate(0) translate(4 318.8)">
<title>dependencies</title>
<polygon fill="white" stroke="transparent" points="-4,4 -4,-318.8 1116,-318.8 1116,4 -4,4"/>
<text text-anchor="middle" x="556" y="-8.2" font-family="sans-serif" font-size="14.00">dependencies</text>
<g id="clust1" class="cluster">
<title>cluster_AppModule</title>
<polygon fill="none" stroke="black" stroke-dasharray="1,5" points="352,-108.8 352,-306.8 909,-306.8 909,-108.8 352,-108.8"/>
</g>
<g id="clust2" class="cluster">
<title>cluster_AppModule_declarations</title>
<polygon fill="none" stroke="black" points="779,-116.8 779,-168.8 901,-168.8 901,-116.8 779,-116.8"/>
</g>
<g id="clust4" class="cluster">
<title>cluster_AppModule_imports</title>
<polygon fill="none" stroke="black" points="468,-116.8 468,-168.8 771,-168.8 771,-116.8 468,-116.8"/>
</g>
<g id="clust6" class="cluster">
<title>cluster_AppModule_bootstrap</title>
<polygon fill="none" stroke="black" points="560,-246.8 560,-298.8 684,-298.8 684,-246.8 560,-246.8"/>
</g>
<g id="clust7" class="cluster">
<title>cluster_AppModule_providers</title>
<polygon fill="none" stroke="black" points="360,-116.8 360,-168.8 460,-168.8 460,-116.8 360,-116.8"/>
</g>
<g id="clust14" class="cluster">
<title>cluster_ConfiguracionModule</title>
<polygon fill="none" stroke="black" stroke-dasharray="1,5" points="8,-32.8 8,-100.8 1104,-100.8 1104,-32.8 8,-32.8"/>
</g>
<g id="clust15" class="cluster">
<title>cluster_ConfiguracionModule_declarations</title>
<polygon fill="none" stroke="black" points="226,-40.8 226,-92.8 1096,-92.8 1096,-40.8 226,-40.8"/>
</g>
<g id="clust21" class="cluster">
<title>cluster_ConfiguracionModule_imports</title>
<polygon fill="none" stroke="black" points="16,-40.8 16,-92.8 218,-92.8 218,-40.8 16,-40.8"/>
</g>
<!-- AppComponent -->
<g id="node1" class="node">
<title>AppComponent</title>
<polygon fill="#ffffb3" stroke="black" points="892.94,-160.8 787.06,-160.8 787.06,-124.8 892.94,-124.8 892.94,-160.8"/>
<text text-anchor="middle" x="840" y="-138.6" font-family="Times,serif" font-size="14.00">AppComponent</text>
</g>
<!-- AppModule -->
<g id="node2" class="node">
<title>AppModule</title>
<polygon fill="#8dd3c7" stroke="black" points="663.66,-225.8 660.66,-229.8 639.66,-229.8 636.66,-225.8 580.34,-225.8 580.34,-189.8 663.66,-189.8 663.66,-225.8"/>
<text text-anchor="middle" x="622" y="-203.6" font-family="Times,serif" font-size="14.00">AppModule</text>
</g>
<!-- AppComponent&#45;&gt;AppModule -->
<g id="edge1" class="edge">
<title>AppComponent&#45;&gt;AppModule</title>
<path fill="none" stroke="black" d="M840,-160.91C840,-180.14 840,-207.8 840,-207.8 840,-207.8 673.77,-207.8 673.77,-207.8"/>
<polygon fill="black" stroke="black" points="673.77,-204.3 663.77,-207.8 673.77,-211.3 673.77,-204.3"/>
</g>
<!-- AppComponent  -->
<g id="node5" class="node">
<title>AppComponent </title>
<polygon fill="#80b1d3" stroke="black" points="676.44,-290.8 567.56,-290.8 567.56,-254.8 676.44,-254.8 676.44,-290.8"/>
<text text-anchor="middle" x="622" y="-268.6" font-family="Times,serif" font-size="14.00">AppComponent </text>
</g>
<!-- AppModule&#45;&gt;AppComponent  -->
<g id="edge4" class="edge">
<title>AppModule&#45;&gt;AppComponent </title>
<path fill="none" stroke="black" stroke-dasharray="1,5" d="M622,-225.91C622,-225.91 622,-244.79 622,-244.79"/>
<polygon fill="black" stroke="black" points="618.5,-244.79 622,-254.79 625.5,-244.79 618.5,-244.79"/>
</g>
<!-- AppRoutingModule -->
<g id="node3" class="node">
<title>AppRoutingModule</title>
<polygon fill="#8dd3c7" stroke="black" points="763.27,-160.8 760.27,-164.8 739.27,-164.8 736.27,-160.8 634.73,-160.8 634.73,-124.8 763.27,-124.8 763.27,-160.8"/>
<text text-anchor="middle" x="699" y="-138.6" font-family="Times,serif" font-size="14.00">AppRoutingModule</text>
</g>
<!-- AppRoutingModule&#45;&gt;AppModule -->
<g id="edge2" class="edge">
<title>AppRoutingModule&#45;&gt;AppModule</title>
<path fill="none" stroke="black" d="M649.22,-160.91C649.22,-160.91 649.22,-179.79 649.22,-179.79"/>
<polygon fill="black" stroke="black" points="645.72,-179.79 649.22,-189.79 652.72,-179.79 645.72,-179.79"/>
</g>
<!-- ConfiguracionModule -->
<g id="node4" class="node">
<title>ConfiguracionModule</title>
<polygon fill="#8dd3c7" stroke="black" points="616.42,-160.8 613.42,-164.8 592.42,-164.8 589.42,-160.8 475.58,-160.8 475.58,-124.8 616.42,-124.8 616.42,-160.8"/>
<text text-anchor="middle" x="546" y="-138.6" font-family="Times,serif" font-size="14.00">ConfiguracionModule</text>
</g>
<!-- ConfiguracionModule&#45;&gt;AppModule -->
<g id="edge3" class="edge">
<title>ConfiguracionModule&#45;&gt;AppModule</title>
<path fill="none" stroke="black" d="M598.19,-160.91C598.19,-160.91 598.19,-179.79 598.19,-179.79"/>
<polygon fill="black" stroke="black" points="594.69,-179.79 598.19,-189.79 601.69,-179.79 594.69,-179.79"/>
</g>
<!-- Settings -->
<g id="node6" class="node">
<title>Settings</title>
<ellipse fill="#fdb462" stroke="black" cx="410" cy="-142.8" rx="42.31" ry="18"/>
<text text-anchor="middle" x="410" y="-138.6" font-family="Times,serif" font-size="14.00">Settings</text>
</g>
<!-- Settings&#45;&gt;AppModule -->
<g id="edge5" class="edge">
<title>Settings&#45;&gt;AppModule</title>
<path fill="none" stroke="black" d="M410,-160.91C410,-180.14 410,-207.8 410,-207.8 410,-207.8 570.12,-207.8 570.12,-207.8"/>
<polygon fill="black" stroke="black" points="570.12,-211.3 580.12,-207.8 570.12,-204.3 570.12,-211.3"/>
</g>
<!-- ConfiguracionComponent -->
<g id="node7" class="node">
<title>ConfiguracionComponent</title>
<polygon fill="#ffffb3" stroke="black" points="1088.2,-84.8 925.8,-84.8 925.8,-48.8 1088.2,-48.8 1088.2,-84.8"/>
<text text-anchor="middle" x="1007" y="-62.6" font-family="Times,serif" font-size="14.00">ConfiguracionComponent</text>
</g>
<!-- ConfiguracionComponent&#45;&gt;ConfiguracionModule -->
<g id="edge6" class="edge">
<title>ConfiguracionComponent&#45;&gt;ConfiguracionModule</title>
<path fill="none" stroke="black" d="M1007,-84.99C1007,-93.08 1007,-100.8 1007,-100.8 1007,-100.8 600.62,-100.8 600.62,-100.8 600.62,-100.8 600.62,-114.74 600.62,-114.74"/>
<polygon fill="black" stroke="black" points="597.12,-114.74 600.62,-124.74 604.12,-114.74 597.12,-114.74"/>
</g>
<!-- TableDataOneComponent -->
<g id="node8" class="node">
<title>TableDataOneComponent</title>
<polygon fill="#ffffb3" stroke="black" points="907.45,-84.8 744.55,-84.8 744.55,-48.8 907.45,-48.8 907.45,-84.8"/>
<text text-anchor="middle" x="826" y="-62.6" font-family="Times,serif" font-size="14.00">TableDataOneComponent</text>
</g>
<!-- TableDataOneComponent&#45;&gt;ConfiguracionModule -->
<g id="edge7" class="edge">
<title>TableDataOneComponent&#45;&gt;ConfiguracionModule</title>
<path fill="none" stroke="black" d="M753.96,-84.86C753.96,-89.29 753.96,-92.8 753.96,-92.8 753.96,-92.8 585.04,-92.8 585.04,-92.8 585.04,-92.8 585.04,-114.75 585.04,-114.75"/>
<polygon fill="black" stroke="black" points="581.54,-114.75 585.04,-124.75 588.54,-114.75 581.54,-114.75"/>
</g>
<!-- TableDataThreeComponent -->
<g id="node9" class="node">
<title>TableDataThreeComponent</title>
<polygon fill="#ffffb3" stroke="black" points="726.27,-84.8 553.73,-84.8 553.73,-48.8 726.27,-48.8 726.27,-84.8"/>
<text text-anchor="middle" x="640" y="-62.6" font-family="Times,serif" font-size="14.00">TableDataThreeComponent</text>
</g>
<!-- TableDataThreeComponent&#45;&gt;ConfiguracionModule -->
<g id="edge8" class="edge">
<title>TableDataThreeComponent&#45;&gt;ConfiguracionModule</title>
<path fill="none" stroke="black" d="M569.45,-84.81C569.45,-84.81 569.45,-114.65 569.45,-114.65"/>
<polygon fill="black" stroke="black" points="565.95,-114.65 569.45,-124.65 572.95,-114.65 565.95,-114.65"/>
</g>
<!-- TableDataTwoComponent -->
<g id="node10" class="node">
<title>TableDataTwoComponent</title>
<polygon fill="#ffffb3" stroke="black" points="535.79,-84.8 370.21,-84.8 370.21,-48.8 535.79,-48.8 535.79,-84.8"/>
<text text-anchor="middle" x="453" y="-62.6" font-family="Times,serif" font-size="14.00">TableDataTwoComponent</text>
</g>
<!-- TableDataTwoComponent&#45;&gt;ConfiguracionModule -->
<g id="edge9" class="edge">
<title>TableDataTwoComponent&#45;&gt;ConfiguracionModule</title>
<path fill="none" stroke="black" d="M520.68,-84.81C520.68,-84.81 520.68,-114.65 520.68,-114.65"/>
<polygon fill="black" stroke="black" points="517.18,-114.65 520.68,-124.65 524.18,-114.65 517.18,-114.65"/>
</g>
<!-- TablesComponent -->
<g id="node11" class="node">
<title>TablesComponent</title>
<polygon fill="#ffffb3" stroke="black" points="352.15,-84.8 233.85,-84.8 233.85,-48.8 352.15,-48.8 352.15,-84.8"/>
<text text-anchor="middle" x="293" y="-62.6" font-family="Times,serif" font-size="14.00">TablesComponent</text>
</g>
<!-- TablesComponent&#45;&gt;ConfiguracionModule -->
<g id="edge10" class="edge">
<title>TablesComponent&#45;&gt;ConfiguracionModule</title>
<path fill="none" stroke="black" d="M293,-84.86C293,-96.24 293,-108.8 293,-108.8 293,-108.8 505.72,-108.8 505.72,-108.8 505.72,-108.8 505.72,-114.61 505.72,-114.61"/>
<polygon fill="black" stroke="black" points="502.22,-114.61 505.72,-124.61 509.22,-114.61 502.22,-114.61"/>
</g>
<!-- ConfiguracionRoutingModule -->
<g id="node12" class="node">
<title>ConfiguracionRoutingModule</title>
<polygon fill="#8dd3c7" stroke="black" points="209.54,-84.8 206.54,-88.8 185.54,-88.8 182.54,-84.8 24.46,-84.8 24.46,-48.8 209.54,-48.8 209.54,-84.8"/>
<text text-anchor="middle" x="117" y="-62.6" font-family="Times,serif" font-size="14.00">ConfiguracionRoutingModule</text>
</g>
<!-- ConfiguracionRoutingModule&#45;&gt;ConfiguracionModule -->
<g id="edge11" class="edge">
<title>ConfiguracionRoutingModule&#45;&gt;ConfiguracionModule</title>
<path fill="none" stroke="black" d="M117,-84.85C117,-99.17 117,-116.8 117,-116.8 117,-116.8 490.75,-116.8 490.75,-116.8 490.75,-116.8 490.75,-117.59 490.75,-117.59"/>
<polygon fill="black" stroke="black" points="487.25,-114.74 490.75,-124.74 494.25,-114.74 487.25,-114.74"/>
</g>
</g>
</svg>
